<?xml version="1.0" standalone="no"?>
<!DOCTYPE svg PUBLIC "-//W3C//DTD SVG 1.1//EN" "http://www.w3.org/Graphics/SVG/1.1/DTD/svg11.dtd" >
<svg xmlns="http://www.w3.org/2000/svg" xmlns:xlink="http://www.w3.org/1999/xlink" version="1.1">
<metadata></metadata>
<defs>
<font id="passion_onebold" horiz-adv-x="1153" >
<font-face units-per-em="2048" ascent="1638" descent="-410" />
<missing-glyph horiz-adv-x="389" />
<glyph horiz-adv-x="0" />
<glyph horiz-adv-x="682" />
<glyph unicode=" "  horiz-adv-x="389" />
<glyph unicode="&#x09;" horiz-adv-x="389" />
<glyph unicode="&#xa0;" horiz-adv-x="389" />
<glyph unicode="!" horiz-adv-x="675" d="M168 1272h410l-31 -912h-354zM174 141q0 87 44.5 126.5t158.5 39.5q111 0 153.5 -40t42.5 -130q0 -79 -43 -118t-153 -39q-113 0 -158 40t-45 121z" />
<glyph unicode="&#x22;" horiz-adv-x="999" d="M74 829l141 191q-68 14 -97.5 47.5t-29.5 106.5q0 87 51 127t160 40q112 0 158.5 -46.5t46.5 -143.5q0 -50 -14.5 -95.5t-37 -79.5t-57.5 -67t-67 -56t-76 -50zM520 829l142 191q-68 14 -97.5 47.5t-29.5 106.5q0 87 50.5 127t159.5 40q112 0 158.5 -46.5t46.5 -143.5 q0 -50 -14.5 -95.5t-37 -79.5t-57.5 -67t-67 -56t-76 -50z" />
<glyph unicode="#" horiz-adv-x="1134" d="M41 305v279h160l10 55h-121v274h160l51 299h332l-45 -299h47l45 299h332l-45 -299h127v-274h-168l-11 -55h132v-279h-173l-47 -305h-325l43 305h-51l-48 -305h-342l52 305h-115zM528 573h58l14 76h-57z" />
<glyph unicode="$" horiz-adv-x="1079" d="M66 862q0 158 77 261.5t228 144.5v186h342v-170q170 -16 266 -33l-47 -360q-251 51 -332 51q-84 0 -84 -49q0 -9 3 -15.5t12.5 -12.5t15.5 -9t23.5 -9.5t25.5 -10.5q17 -8 56.5 -23.5t67 -27t68 -33t69.5 -41.5t60.5 -51.5t51 -65.5t32.5 -80.5t13 -99.5q0 -160 -80 -268 t-221 -142v-172h-342v158q-135 12 -269 45l29 346q151 -38 231 -54t140 -16q63 0 63 45q0 15 -9.5 26.5t-21.5 18.5t-38 19q-21 10 -78 33.5t-95.5 41t-91.5 53t-85.5 75t-56 102t-23.5 137.5z" />
<glyph unicode="%" horiz-adv-x="1902" d="M41 829q0 94 8.5 162t32 127.5t63 96t102.5 57t150 20.5q89 0 153 -20.5t103.5 -56.5t62.5 -96t31.5 -127.5t8.5 -162.5q0 -94 -8.5 -160.5t-31.5 -125.5t-62.5 -94.5t-103.5 -55.5t-153 -20q-108 0 -179 29t-109.5 90.5t-53 140.5t-14.5 196zM330 811q0 -71 1 -101.5 t8 -65.5t22 -46.5t42 -11.5q24 0 38 12t20 47.5t7 67t1 104.5v27q0 43 -0.5 62.5t-2.5 49.5t-6 43t-12 28t-20.5 20.5t-30.5 5.5q-24 0 -38.5 -11.5t-20.5 -44t-7 -59.5t-1 -88v-6v-27v-6zM598 0l406 1272h303l-408 -1272h-301zM1147 436q0 94 8.5 162t32 127.5t63 96 t102.5 57t150 20.5q89 0 153 -20.5t103.5 -56.5t62.5 -96t31.5 -127.5t8.5 -162.5q0 -94 -8.5 -160.5t-31.5 -125.5t-62.5 -94.5t-103.5 -55.5t-153 -20q-108 0 -179 29t-109.5 90.5t-53 140.5t-14.5 196zM1436 418q0 -71 1 -101.5t8 -65.5t22 -46.5t42 -11.5q24 0 38 11.5 t20 47.5t7 67.5t1 104.5v27q0 63 -1 91t-7.5 61t-22 44.5t-41.5 11.5q-17 0 -28.5 -5t-18.5 -19.5t-11.5 -27t-6 -41.5t-2 -48.5t-0.5 -60.5v-6v-27v-6z" />
<glyph unicode="&#x26;" horiz-adv-x="1421" d="M59 377q0 141 58.5 218t173.5 120q-103 118 -103 256q0 177 106.5 259.5t334.5 82.5t334 -85.5t106 -248.5q0 -70 -12 -118.5t-44 -89.5t-72.5 -71.5t-113.5 -74.5l150 -162h10v192h324v-149q0 -80 -26 -135.5t-83 -98.5v-8h174l-37 -284h-192q-80 0 -133.5 13t-106.5 48 h-14q-68 -34 -142.5 -47.5t-218.5 -13.5q-245 0 -359 91t-114 306zM467 373q0 -54 25 -77.5t79 -23.5h109v9l-176 178q-37 -22 -37 -86zM580 915q0 -8 1.5 -15.5t2.5 -13t5.5 -12.5t6.5 -10.5t9.5 -10.5t10 -9.5t12.5 -11t13 -11.5q26 20 37 29.5t19 25t8 35.5 q0 33 -15 47.5t-49 14.5q-33 0 -47 -13.5t-14 -44.5z" />
<glyph unicode="'" horiz-adv-x="516" d="M78 829l141 191q-68 14 -97.5 47.5t-29.5 106.5q0 87 51 127t160 40q112 0 158.5 -46.5t46.5 -143.5q0 -50 -14.5 -95.5t-37 -79.5t-57.5 -67t-67 -56t-76 -50z" />
<glyph unicode="(" horiz-adv-x="794" d="M49 520q0 256 96.5 446t296.5 355l320 -98q-125 -166 -183.5 -336t-58.5 -365q0 -193 61 -373.5t181 -369.5l-332 -80q-90 87 -153.5 166.5t-118 179t-82 218.5t-27.5 257z" />
<glyph unicode=")" horiz-adv-x="794" d="M33 -221q243 354 243 743q0 194 -58.5 363t-184.5 336l321 100q196 -164 293.5 -357.5t97.5 -443.5q0 -133 -28 -251t-82 -218.5t-119 -183.5t-154 -168z" />
<glyph unicode="*" horiz-adv-x="956" d="M49 950l66 242l204 -45l21 199h285l16 -199l190 43l76 -240l-188 -61l137 -187l-227 -131l-144 154l-137 -152l-227 132l115 182z" />
<glyph unicode="+" horiz-adv-x="974" d="M66 428v332h256v256h331v-256h256v-332h-256v-256h-331v256h-256z" />
<glyph unicode="," horiz-adv-x="626" d="M98 -203l142 191q-68 14 -97.5 47t-29.5 106q0 87 51 127.5t160 40.5q112 0 158 -46.5t46 -143.5q0 -50 -14.5 -95.5t-37 -79.5t-57.5 -67t-67 -56t-76 -50z" />
<glyph unicode="-" horiz-adv-x="825" d="M66 367v331h694v-331h-694z" />
<glyph unicode="." horiz-adv-x="595" d="M98 141q0 87 44.5 126.5t158.5 39.5q112 0 154.5 -40t42.5 -130q0 -79 -43.5 -118t-153.5 -39q-113 0 -158 40t-45 121z" />
<glyph unicode="/" horiz-adv-x="854" d="M-31 -291l496 1553h420l-498 -1553h-418z" />
<glyph unicode="0" horiz-adv-x="1103" d="M41 633q0 134 12.5 231t45.5 181.5t90 136.5t147 81t215 29q127 0 217.5 -29t147.5 -81t90 -137t45 -181.5t12 -230.5q0 -94 -6 -168t-21 -144t-40 -121t-64 -94t-92.5 -70t-125.5 -41.5t-163 -14.5q-124 0 -214 28.5t-147 80t-90.5 135t-46 180t-12.5 229.5zM455 614 q0 -103 2 -148t11 -96t31 -68t60 -17q35 0 54.5 16.5t28 67.5t10 96t1.5 149v39q0 61 -0.5 89.5t-3 71t-9 61t-17.5 39.5t-29 28.5t-43 7.5q-24 0 -40.5 -7.5t-27 -28.5t-16.5 -39.5t-8.5 -61t-3 -71t-0.5 -89.5v-39z" />
<glyph unicode="1" horiz-adv-x="665" d="M8 926v231l228 115h339v-1272h-423v926h-144z" />
<glyph unicode="2" horiz-adv-x="960" d="M8 1200q242 92 471 92q223 0 336 -102.5t113 -288.5q0 -89 -18 -162.5t-59.5 -144t-90 -129t-129.5 -141.5v-9h301v-315h-875l-20 221q24 24 81.5 80t83.5 81t73 74t70 76.5t54.5 69t46 71.5t26 64.5t11.5 65.5q0 46 -24 72t-72 26q-93 0 -311 -59z" />
<glyph unicode="3" horiz-adv-x="960" d="M8 1188q121 59 228.5 81.5t230.5 22.5q215 0 333 -94.5t118 -263.5q0 -95 -34.5 -156t-115.5 -106v-8q168 -73 168 -291q0 -188 -123 -290.5t-358 -102.5q-113 0 -200.5 18t-217.5 68l90 315q221 -68 281 -68q79 0 79 88q0 47 -22.5 69t-71.5 22h-180v286h178q38 0 54 19 t16 59q0 42 -18.5 64t-63.5 22q-39 0 -99 -17.5t-180 -58.5z" />
<glyph unicode="4" horiz-adv-x="1122" d="M16 492l447 770h506v-723h153l-16 -299h-137v-240h-424v240h-496zM403 530h152v267h-8z" />
<glyph unicode="5" horiz-adv-x="966" d="M61 43l33 350q274 -71 340 -71q49 0 67.5 22.5t18.5 69.5q0 46 -13 67t-46 21q-31 0 -47 -33l-351 41v752h809v-326h-409v-133q56 16 125 16q346 0 346 -385q0 -217 -109.5 -335.5t-355.5 -118.5q-222 0 -408 63z" />
<glyph unicode="6" horiz-adv-x="1048" d="M33 545q0 258 88.5 420t287.5 244.5t523 82.5l-27 -336q-181 0 -285 -38.5t-143 -126.5q66 14 160 14q192 0 297.5 -93.5t105.5 -287.5q0 -218 -115 -331t-370 -113q-260 0 -391 144t-131 421zM455 459q0 -183 104 -183q44 0 64 28.5t20 90.5t-23 89.5t-75 27.5 q-50 0 -86 -8q-4 -32 -4 -45z" />
<glyph unicode="7" horiz-adv-x="952" d="M4 915v347h940v-199l-393 -1063h-473l377 915h-451z" />
<glyph unicode="8" horiz-adv-x="1062" d="M29 354q0 106 41.5 170t130.5 105v8q-84 57 -122 127t-38 178q0 163 130.5 256.5t356.5 93.5q231 0 360.5 -90t129.5 -252q0 -112 -34.5 -179t-121.5 -124v-8q88 -42 130 -106t42 -162q0 -191 -129 -291t-377 -100q-232 0 -365.5 95.5t-133.5 278.5zM442 367 q0 -45 24.5 -72t68.5 -27q83 0 83 84q0 41 -25 69t-83 64q-68 -55 -68 -118zM455 903q0 -28 14 -51t31 -36.5t53 -37.5q39 30 57.5 54.5t18.5 56.5q0 92 -90 92q-84 0 -84 -78z" />
<glyph unicode="9" horiz-adv-x="1042" d="M8 852q0 205 118.5 322.5t358.5 117.5q276 0 400.5 -133.5t124.5 -415.5q0 -153 -28.5 -271t-93.5 -212.5t-169.5 -155t-257.5 -92.5t-357 -32l17 309q204 0 300.5 40t137.5 132q-74 -12 -156 -12q-194 0 -294.5 95.5t-100.5 307.5zM403 848q0 -66 21.5 -95.5t73.5 -29.5 q54 0 94 12v37q0 49 -3 78.5t-13 58t-31.5 41.5t-55.5 13q-86 0 -86 -115z" />
<glyph unicode=":" horiz-adv-x="595" d="M98 141q0 87 44.5 126.5t158.5 39.5q112 0 154.5 -40t42.5 -130q0 -79 -43.5 -118t-153.5 -39q-113 0 -158 40t-45 121zM98 739q0 87 44.5 126.5t158.5 39.5q112 0 154.5 -40t42.5 -130q0 -79 -43.5 -118t-153.5 -39q-113 0 -158 40t-45 121z" />
<glyph unicode=";" horiz-adv-x="626" d="M98 -203l142 191q-68 14 -97.5 47t-29.5 106q0 87 51 127.5t160 40.5q112 0 158 -46.5t46 -143.5q0 -50 -14.5 -95.5t-37 -79.5t-57.5 -67t-67 -56t-76 -50zM113 739q0 87 44 126.5t158 39.5q112 0 154.5 -40t42.5 -130q0 -79 -43.5 -118t-153.5 -39q-113 0 -157.5 40 t-44.5 121z" />
<glyph unicode="&#x3c;" horiz-adv-x="1021" d="M66 424v315l890 353v-328l-487 -180l487 -197v-326z" />
<glyph unicode="=" horiz-adv-x="929" d="M74 190v302h782v-302h-782zM74 573v301h782v-301h-782z" />
<glyph unicode="&#x3e;" horiz-adv-x="1021" d="M66 61v326l487 197l-487 180v328l890 -353v-315z" />
<glyph unicode="?" horiz-adv-x="808" d="M49 883v356q191 43 344 43q391 0 391 -373q0 -69 -14.5 -125t-37.5 -95t-63 -75t-78 -60t-95 -54v-140h-342v228q0 66 27 106.5t93 69.5q63 28 86 47.5t23 54.5q0 60 -70 60q-45 0 -264 -43zM125 141q0 87 44.5 126.5t158.5 39.5q111 0 153.5 -40t42.5 -130 q0 -79 -43 -118t-153 -39q-113 0 -158 40t-45 121z" />
<glyph unicode="@" horiz-adv-x="1959" d="M49 492q0 403 258 639.5t723 236.5q427 0 654 -212t227 -585q0 -591 -545 -591q-106 0 -167 17.5t-112 61.5h-14q-97 -79 -250 -79q-145 0 -222 78.5t-77 217.5q0 72 21.5 125.5t59.5 88t101 58t133 35.5t169 19v37q0 16 -10 26.5t-29 10.5q-105 0 -359 -64l-45 316 q116 28 173.5 40.5t153 25t181.5 12.5q188 0 269 -70t81 -219q0 -59 -6 -199t-6 -211q0 -45 49 -45q34 0 58 22.5t37 65.5t18.5 96t5.5 123q0 122 -30 213.5t-94.5 160t-173 103.5t-259.5 35q-174 0 -298.5 -39t-199 -116.5t-109 -185t-34.5 -253.5q0 -161 38.5 -273 t116.5 -178.5t185.5 -96t257.5 -29.5q176 0 430 31v-265q-222 -45 -471 -45q-446 0 -667.5 213t-221.5 648zM913 301q0 -57 48 -57q59 0 59 61v78q-56 -8 -81.5 -26.5t-25.5 -55.5z" />
<glyph unicode="A" d="M0 0l264 1272h625l264 -1272h-430l-41 197h-227l-43 -197h-412zM485 461h166l-78 426h-8z" />
<glyph unicode="B" d="M82 0v1272h571q229 0 339 -82t110 -252q0 -92 -36 -154t-108 -108v-8q166 -76 166 -295q0 -181 -109.5 -277t-352.5 -96h-580zM518 254h60q55 0 73.5 24t18.5 97q0 77 -19.5 109t-72.5 32h-60v-262zM518 741h62q38 0 54.5 24.5t16.5 84.5q0 62 -17 88.5t-56 26.5h-60 v-224z" />
<glyph unicode="C" horiz-adv-x="952" d="M41 625q0 160 31 280.5t98 208.5t178.5 133t267.5 45q182 0 357 -69l-68 -365q-204 60 -268 60q-85 0 -119.5 -71t-34.5 -224q0 -158 35 -228.5t125 -70.5q76 0 264 45l66 -326q-199 -63 -387 -63q-285 0 -415 163t-130 482z" />
<glyph unicode="D" horiz-adv-x="1226" d="M82 0v1272h504q168 0 285.5 -42.5t184.5 -125t96.5 -189.5t29.5 -251q0 -117 -18 -213t-61 -181.5t-111 -143.5t-174 -92t-243 -34h-493zM518 319h51q44 0 74.5 14t48.5 37.5t27.5 65.5t12.5 84.5t3 108.5q0 68 -3.5 112.5t-14 85t-29.5 63t-50.5 35.5t-76.5 13h-43v-619 z" />
<glyph unicode="E" horiz-adv-x="944" d="M82 0v1272h840l-29 -338h-373v-154h326v-295h-326v-174h402l-29 -311h-811z" />
<glyph unicode="F" horiz-adv-x="901" d="M82 0v1272h840l-29 -338h-373v-174h283v-295h-283v-465h-438z" />
<glyph unicode="G" horiz-adv-x="1212" d="M43 627q0 125 17.5 224.5t58.5 183.5t106 139.5t162.5 86.5t224.5 31q231 0 435 -63l-68 -385q-226 63 -330 63q-42 0 -71 -12.5t-47 -34t-27.5 -57.5t-13 -75t-3.5 -95q0 -173 30.5 -246.5t125.5 -73.5q35 0 88 11l10 2v123h-102v282h483v-731h-309l-31 66h-8 q-105 -86 -252 -86q-245 0 -362 168t-117 479z" />
<glyph unicode="H" horiz-adv-x="1255" d="M82 0v1272h438v-475h221v475h433v-1272h-433v449h-221v-449h-438z" />
<glyph unicode="I" horiz-adv-x="620" d="M94 0v1272h432v-1272h-432z" />
<glyph unicode="J" horiz-adv-x="667" d="M8 283h103q22 0 29 7t7 27v955h431v-1006q0 -164 -84.5 -225t-313.5 -61h-149z" />
<glyph unicode="K" horiz-adv-x="1130" d="M82 0v1272h416v-504h22l162 504h469l-264 -662l243 -610h-481l-129 422h-22v-422h-416z" />
<glyph unicode="L" horiz-adv-x="845" d="M82 0v1272h438v-942h354l-28 -330h-764z" />
<glyph unicode="M" horiz-adv-x="1544" d="M78 0l49 1272h545l96 -576h18l95 576h538l47 -1272h-387v606h-10l-121 -606h-358l-119 606h-10v-606h-383z" />
<glyph unicode="N" horiz-adv-x="1243" d="M82 0v1272h432l242 -518h12v518h393v-1272h-418l-258 502h-14v-502h-389z" />
<glyph unicode="O" horiz-adv-x="1247" d="M41 641q0 345 136.5 498t449.5 153q312 0 445.5 -151.5t133.5 -485.5q0 -348 -138 -511.5t-450 -163.5q-306 0 -441.5 162t-135.5 499zM487 580q0 -90 5 -139.5t21.5 -82.5t43.5 -43t76 -10q88 0 110.5 48.5t22.5 219.5v95q0 169 -26 220.5t-115 51.5t-113.5 -51.5 t-24.5 -218.5v-90z" />
<glyph unicode="P" horiz-adv-x="1075" d="M82 0v1272h496q252 0 366.5 -103t114.5 -338q0 -234 -111 -334t-348 -100h-88v-397h-430zM504 662h53q48 0 65 32.5t17 110.5t-19 110.5t-73 32.5h-43v-286z" />
<glyph unicode="Q" horiz-adv-x="1255" d="M37 641q0 344 137 497.5t449 153.5t445.5 -151.5t133.5 -485.5q0 -226 -58 -356.5t-194 -212.5v-8h291l-27 -289h-86q-197 0 -331 80l-183 111q-129 0 -227 29t-164.5 83t-108 137t-59.5 183.5t-18 228.5zM483 580q0 -90 5 -139.5t21.5 -82.5t43.5 -43t76 -10 q88 0 110.5 48.5t22.5 219.5v95q0 169 -26 220.5t-115 51.5t-113.5 -51.5t-24.5 -218.5v-90z" />
<glyph unicode="R" d="M82 0v1272h543q237 0 349.5 -100t112.5 -310q0 -122 -39.5 -194.5t-123.5 -128.5l190 -539h-452l-127 438h-33v-438h-420zM494 688h51q46 0 66 27.5t20 101.5q0 65 -20 92t-64 27h-53v-248z" />
<glyph unicode="S" horiz-adv-x="989" d="M20 862q0 204 123 317t346 113q217 0 445 -41l-47 -360q-251 51 -332 51q-84 0 -84 -49q0 -9 3 -15.5t12.5 -12.5t15.5 -9t23.5 -9.5t25.5 -10.5q17 -8 56.5 -23.5t67 -27t68 -33t69.5 -41.5t60.5 -51.5t51 -65.5t32.5 -80.5t13 -99.5q0 -211 -121 -322.5t-354 -111.5 q-222 0 -437 55l29 346q151 -38 231 -54t140 -16q63 0 63 45q0 15 -9.5 26.5t-21.5 18.5t-38 19q-20 10 -57.5 25t-68 27.5t-70.5 33t-71 42t-63 53.5t-53 68.5t-34.5 86t-13.5 106.5z" />
<glyph unicode="T" horiz-adv-x="974" d="M-20 926l18 346h997l-24 -346h-271v-926h-436v926h-284z" />
<glyph unicode="U" horiz-adv-x="1255" d="M86 422v850h446v-821q0 -111 101 -111q53 0 75.5 28t22.5 85v819h438v-846q0 -224 -141 -335t-405 -111q-263 0 -400 110t-137 332z" />
<glyph unicode="V" horiz-adv-x="1175" d="M20 1272h474l98 -780h24l89 780h450l-246 -1272h-628z" />
<glyph unicode="W" horiz-adv-x="1544" d="M41 1272h401l52 -584h18l78 584h387l86 -584h14l39 584h387l-135 -1272h-487l-97 516h-16l-82 -516h-487z" />
<glyph unicode="X" horiz-adv-x="1173" d="M0 0l246 647l-221 625h477l94 -357h16l105 357h426l-205 -627l236 -645h-469l-115 346h-19l-122 -346h-449z" />
<glyph unicode="Y" horiz-adv-x="1097" d="M0 1272h461l90 -467h12l86 467h449l-336 -869v-403h-436v406z" />
<glyph unicode="Z" horiz-adv-x="1079" d="M25 1272h997l14 -215l-368 -731h387v-326h-963l-14 219l393 703h-424z" />
<glyph unicode="[" horiz-adv-x="776" d="M106 -281v1573h580v-288h-147v-998h147v-287h-580z" />
<glyph unicode="\" horiz-adv-x="854" d="M-31 1262h420l496 -1553h-418z" />
<glyph unicode="]" horiz-adv-x="778" d="M90 6h152v998h-152v288h582v-1573h-582v287z" />
<glyph unicode="^" horiz-adv-x="1024" d="M170 1047l160 268h364l160 -268h-268l-72 106l-74 -106h-270z" />
<glyph unicode="_" horiz-adv-x="819" d="M0 -45h819v-236h-819v236z" />
<glyph unicode="`" horiz-adv-x="1024" d="M225 1325h412l139 -266h-291z" />
<glyph unicode="a" horiz-adv-x="1021" d="M29 276q0 72 21.5 125.5t59.5 88t100.5 58t132.5 35.5t169 19v37q0 16 -10 26.5t-29 10.5q-104 0 -358 -64l-64 324q294 70 527 70q188 0 269 -70t81 -219q0 -59 -6.5 -198.5t-6.5 -211.5q0 -28 22 -37.5t77 -9.5l-39 -272q-122 -8 -166 -8q-150 0 -217 79h-14 q-97 -79 -250 -79q-145 0 -222 78.5t-77 217.5zM418 301q0 -57 47 -57q59 0 59 61v78q-56 -8 -81 -26.5t-25 -55.5z" />
<glyph unicode="b" horiz-adv-x="1069" d="M61 0v1313h412v-348q88 41 189 41q95 0 161.5 -20.5t108.5 -57.5t65.5 -100t32 -136t8.5 -178q0 -89 -6 -156.5t-21.5 -130.5t-44 -106.5t-71 -76.5t-104 -48.5t-142.5 -15.5q-147 0 -235 63l-17 -43h-336zM483 279q41 -9 66 -9q15 0 26 5.5t17.5 19.5t10.5 28.5t6 43 t2.5 52t0.5 66.5q0 109 -12 157t-53 48q-28 0 -64 -16v-395z" />
<glyph unicode="c" horiz-adv-x="813" d="M31 473q0 156 50 274t156.5 188.5t258.5 70.5q165 0 313 -56l-43 -323q-156 57 -225 57q-47 0 -64.5 -48.5t-17.5 -148.5q0 -106 16.5 -152t65.5 -46q74 0 207 26l45 -284q-94 -27 -160 -39t-144 -12q-226 0 -342 131t-116 362z" />
<glyph unicode="d" horiz-adv-x="1112" d="M31 500q0 246 99 376t286 130q107 0 172 -33v340h411v-1006q0 -27 19 -37t69 -10l-36 -272q-106 -8 -177 -8q-161 0 -219 79h-8q-94 -79 -223 -79q-109 0 -187 37t-122 108t-64 162.5t-20 212.5zM459 489q0 -123 10 -169t51 -46q40 0 68 9v397q-35 14 -66 14 q-41 0 -52 -47t-11 -158z" />
<glyph unicode="e" horiz-adv-x="1026" d="M31 485q0 252 128 386.5t380 134.5q126 0 215 -28t140.5 -81.5t74 -123.5t22.5 -163q0 -75 -16 -229h-514q8 -111 135 -111q13 0 28.5 1t27.5 2t33.5 4t33.5 4.5t41 6.5t42 7t51 8.5t54 9.5l35 -276q-214 -57 -405 -57q-245 0 -375.5 134.5t-130.5 370.5zM453 567h147v33 q0 39 -16 57.5t-56 18.5q-43 0 -59 -27t-16 -82z" />
<glyph unicode="f" horiz-adv-x="679" d="M2 676v276h98v99q0 134 82.5 205t247.5 71q138 0 305 -10l-33 -322q-152 13 -157 13q-21 0 -21 -21v-35h174l-22 -276h-148v-676h-428v676h-98z" />
<glyph unicode="g" horiz-adv-x="1050" d="M29 182q0 121 155 185q-73 53 -108 122.5t-35 174.5q0 167 118.5 254.5t334.5 87.5h557v-250h-152v-8q29 -23 46.5 -62.5t17.5 -83.5q0 -163 -101.5 -242t-312.5 -79h-129q-17 0 -17 -19q0 -18 17 -18h325q134 0 198.5 -52.5t64.5 -160.5q0 -171 -131 -251.5t-388 -80.5 q-66 0 -119.5 4t-104.5 13t-89 25.5t-66.5 40t-43.5 57.5t-15 77q0 68 72 100v9q-94 49 -94 157zM389 -33v-12q0 -14 14 -14h234q18 0 18 14v12q0 15 -18 15h-234q-14 0 -14 -15zM459 592q0 -105 57 -105q29 0 41 25.5t12 75.5q0 56 -12 80t-45 24q-30 0 -41.5 -24 t-11.5 -76z" />
<glyph unicode="h" horiz-adv-x="1103" d="M61 0v1313h412v-393q124 86 277 86q278 0 278 -258v-748h-432v635q0 33 -27 33q-38 0 -82 -21v-647h-426z" />
<glyph unicode="i" horiz-adv-x="573" d="M68 1167q0 174 219 174q110 0 164.5 -41t54.5 -133q0 -91 -54 -129.5t-165 -38.5q-110 0 -164.5 38t-54.5 130zM76 0v961h426v-961h-426z" />
<glyph unicode="j" horiz-adv-x="583" d="M-51 14h102q24 0 30.5 6t6.5 25v916h424v-969q0 -110 -35.5 -170t-119.5 -86.5t-238 -26.5h-135zM76 1167q0 174 219 174q110 0 164.5 -41t54.5 -133q0 -91 -54 -129.5t-165 -38.5q-110 0 -164.5 38t-54.5 130z" />
<glyph unicode="k" horiz-adv-x="1052" d="M61 0v1313h420v-676h8l144 344h444l-229 -510q39 -85 114 -243.5t107 -227.5h-461l-119 322h-8v-322h-420z" />
<glyph unicode="l" horiz-adv-x="585" d="M66 254v1059h419v-965q0 -29 18 -42t58 -13l-31 -313h-168q-150 0 -223 67t-73 207z" />
<glyph unicode="m" horiz-adv-x="1628" d="M61 0v981h388l12 -63q139 88 282 88q174 0 244 -99q70 49 135.5 74t161.5 25q283 0 283 -279v-727h-432v635q0 14 -6.5 23.5t-18.5 9.5q-30 0 -82 -21v-647h-432v635q0 33 -27 33q-35 0 -82 -21v-647h-426z" />
<glyph unicode="n" horiz-adv-x="1089" d="M61 0v981h388l12 -63q129 88 280 88q287 0 287 -279v-727h-432v635q0 33 -27 33q-38 0 -82 -21v-647h-426z" />
<glyph unicode="o" horiz-adv-x="1044" d="M31 494q0 269 120 390.5t377 121.5q253 0 369.5 -119t116.5 -379q0 -282 -114.5 -405t-371.5 -123q-261 0 -379 122.5t-118 391.5zM459 467q0 -132 11 -169.5t60 -37.5q38 0 49 38t11 159v57q0 119 -11 155t-55 36q-43 0 -54 -36.5t-11 -152.5v-49z" />
<glyph unicode="p" horiz-adv-x="1069" d="M61 -281v1262h353l16 -45q96 70 232 70q114 0 187.5 -28.5t115 -92.5t57.5 -152t16 -223q0 -139 -17 -232t-60.5 -163t-122.5 -102.5t-199 -32.5q-76 0 -152 28v-289h-426zM483 279q41 -9 66 -9q15 0 26 5.5t17.5 19.5t10.5 28.5t6 43t2.5 52t0.5 66.5q0 109 -12 157 t-53 48q-28 0 -64 -16v-395z" />
<glyph unicode="q" horiz-adv-x="1077" d="M31 500q0 241 99.5 373.5t285.5 132.5q141 0 223 -70l18 45h353v-1262h-426v297q-81 -36 -160 -36q-215 0 -304 129.5t-89 390.5zM459 489q0 -123 10 -169t51 -46q30 0 68 9v395q-40 16 -66 16q-41 0 -52 -47t-11 -158z" />
<glyph unicode="r" horiz-adv-x="774" d="M66 0v981h364l12 -66h9q48 45 112 62.5t187 17.5l-13 -340h-139q-62 0 -86.5 -22t-24.5 -84v-549h-421z" />
<glyph unicode="s" horiz-adv-x="825" d="M12 686q0 156 106 238t302 82q165 0 377 -41l-43 -310q-270 54 -328 54q-27 0 -27 -21q0 -3 1 -6t2 -5t4 -4.5t4.5 -3.5t5.5 -3t5.5 -2.5t6.5 -2.5t6 -2q70 -22 119 -42t102 -51t85 -65.5t52.5 -84.5t20.5 -111q0 -158 -92 -241.5t-303 -83.5q-182 0 -365 43l27 301 q257 -62 340 -62q29 0 29 19q0 13 -7 18t-26 12q-104 36 -170.5 67t-123.5 74.5t-83.5 100.5t-26.5 133z" />
<glyph unicode="t" horiz-adv-x="749" d="M2 692v277h129l27 182h379v-182h186v-277h-188v-379q0 -26 24 -26q2 0 162 8l-12 -295q-204 -20 -289 -20q-160 0 -234.5 60t-74.5 208v444h-109z" />
<glyph unicode="u" horiz-adv-x="1103" d="M61 258v723h431v-643q0 -33 30 -33q26 0 78 21v655h428v-977h-410v51h-12q-58 -37 -116 -56t-138 -19q-291 0 -291 278z" />
<glyph unicode="v" horiz-adv-x="1015" d="M-25 981h445l82 -524h14l90 524h418l-236 -981h-575z" />
<glyph unicode="w" horiz-adv-x="1368" d="M4 981h397l37 -436h13l57 436h342l53 -436h15l40 436h383l-143 -981h-457l-69 336h-10l-66 -336h-449z" />
<glyph unicode="x" horiz-adv-x="1015" d="M0 0l205 473q-21 51 -93 233.5t-110 274.5h465l43 -252h12q9 40 26.5 133t22.5 119h439l-201 -498l207 -483h-453l-57 244h-12l-54 -244h-440z" />
<glyph unicode="y" horiz-adv-x="1030" d="M-16 981h450l86 -530h8q12 68 46 250t51 280h422l-285 -997q-43 -151 -132 -208t-292 -57h-246l-47 293h164q27 0 40 7.5t13 27.5q0 24 -10 57z" />
<glyph unicode="z" horiz-adv-x="913" d="M10 659v322h858l13 -215l-314 -461h322v-305h-858l-11 231l322 428h-332z" />
<glyph unicode="{" horiz-adv-x="806" d="M25 375v284q82 0 102 8.5t20 49.5v287q0 160 66.5 224t230.5 64h273v-295h-156v-323q0 -70 -19 -99t-67 -55v-12q46 -23 66 -55.5t20 -96.5v-352h156v-285h-273q-160 0 -228.5 62.5t-68.5 210.5v323q0 42 -21.5 51t-100.5 9z" />
<glyph unicode="|" horiz-adv-x="772" d="M184 -291v1553h404v-1553h-404z" />
<glyph unicode="}" horiz-adv-x="806" d="M90 4h156v352q0 64 20 96.5t66 55.5v12q-48 26 -67 55t-19 99v323h-156v295h272q164 0 230.5 -64t66.5 -224v-287q0 -41 20.5 -49.5t102.5 -8.5v-284q-79 0 -101 -9t-22 -51v-323q0 -148 -68.5 -210.5t-228.5 -62.5h-272v285z" />
<glyph unicode="~" horiz-adv-x="1024" d="M168 1030v27q0 137 46 207.5t163 70.5q15 0 30.5 -1t34.5 -5t30.5 -6t36 -9t32 -9.5t37.5 -11.5t36 -11v64h273v-25q0 -51 -4 -88t-17.5 -75t-37 -62t-64 -39t-96.5 -15q-19 0 -36.5 1.5t-36.5 5t-32 6.5t-33 9.5t-29 9.5t-32 11.5t-29 10.5v-66h-272z" />
<glyph unicode="&#xa1;" horiz-adv-x="675" d="M98 -281l31 912h354l25 -912h-410zM102 854q0 79 43.5 118.5t153.5 39.5q113 0 158 -40.5t45 -121.5q0 -87 -44.5 -126.5t-158.5 -39.5q-112 0 -154.5 40t-42.5 130z" />
<glyph unicode="&#xa2;" horiz-adv-x="851" d="M41 473q0 170 62 297.5t184 187.5v213h342v-174q90 -11 190 -47l-43 -323q-156 57 -225 57q-47 0 -64.5 -48.5t-17.5 -148.5q0 -106 16.5 -152t65.5 -46q74 0 207 26l45 -284q-90 -26 -174 -41v-158h-342v186q-122 53 -184 170.5t-62 284.5z" />
<glyph unicode="&#xa3;" horiz-adv-x="1230" d="M4 229q0 120 70.5 184t193.5 64q55 0 125 -16v96h-200v229h133q-50 102 -50 201q0 305 383 305q107 0 193 -14t215 -47l-57 -352q-218 55 -240 55q-16 0 -16 -16q0 -15 37 -132h215l-25 -229h-160v-106q0 -122 -37 -197q7 -3 33.5 -13.5t42.5 -15.5v154h367 q0 -232 -75 -342.5t-265 -110.5q-97 0 -164 17.5t-158 60.5h-8q-112 -49 -233 -49q-144 0 -232 65.5t-88 208.5zM285 201q0 -39 45 -39q35 0 63 31q-15 17 -22 24.5t-20 14t-29 6.5q-37 0 -37 -37z" />
<glyph unicode="&#xa4;" horiz-adv-x="1595" d="M98 958l64 109l246 -141q141 184 393 184q263 0 401 -180l234 137q12 -21 30.5 -55.5t30.5 -53.5l-240 -139q27 -95 27 -190q0 -108 -41 -226l246 -145q-15 -26 -35.5 -57t-30.5 -47l-245 145q-143 -152 -377 -152q-238 0 -379 156q-18 -11 -110.5 -64.5t-139.5 -82.5 q-11 20 -61 102l254 148q-35 109 -35 223q0 89 24 180zM449 625q0 -186 92 -280.5t260 -94.5q356 0 356 377q0 180 -88.5 278.5t-267.5 98.5q-352 0 -352 -379z" />
<glyph unicode="&#xa5;" horiz-adv-x="1097" d="M0 1272h461l90 -467h12l86 467h449l-236 -608h119v-224h-207l-12 -39h219v-219h-219v-182h-436v182h-224v219h224l-13 39h-211v224h125z" />
<glyph unicode="&#xa6;" horiz-adv-x="772" d="M184 -291v653h404v-653h-404zM184 666v596h404v-596h-404z" />
<glyph unicode="&#xa7;" horiz-adv-x="1013" d="M57 557q0 92 27.5 155.5t79.5 121.5q-29 60 -29 120q0 173 117.5 266t306.5 93q142 0 340 -33l-57 -334q-192 39 -285 39q-27 0 -27 -24q0 -16 23.5 -32t61 -33t83 -38t91 -52.5t83 -70.5t61 -98t23.5 -129q0 -101 -26 -169.5t-76 -135.5q23 -55 23 -137 q0 -174 -105.5 -270.5t-308.5 -96.5q-154 0 -371 39l29 344q235 -55 342 -55q16 0 25.5 10.5t9.5 30.5q0 21 -24.5 42t-63 41t-85.5 44t-94.5 57.5t-86 73.5t-63 100t-24.5 131zM383 641q0 -38 10 -63.5t43.5 -53.5t73.5 -50t123 -64q0 65 -50.5 109.5t-199.5 121.5z" />
<glyph unicode="&#xa8;" horiz-adv-x="1024" d="M168 1180q0 65 41 99t113 34q163 0 163 -133q0 -71 -39 -103.5t-124 -32.5q-154 0 -154 136zM549 1180q0 65 40.5 99t112.5 34q164 0 164 -133q0 -70 -39.5 -103t-124.5 -33q-153 0 -153 136z" />
<glyph unicode="&#xa9;" horiz-adv-x="2004" d="M98 481q0 419 230.5 636.5t683.5 217.5q239 0 418 -58.5t292.5 -170t169.5 -268t56 -357.5q0 -427 -228 -639.5t-708 -212.5q-470 0 -692 212t-222 640zM489 473q0 -295 120.5 -423t410.5 -128q156 0 260.5 30.5t169 99t92 171t27.5 254.5q0 154 -26.5 256t-91 169.5 t-167.5 96.5t-260 29q-282 0 -408.5 -128.5t-126.5 -426.5zM629 457q0 240 100.5 366.5t325.5 126.5q141 0 274 -53l-41 -268q-137 39 -203 39q-63 0 -88.5 -50.5t-25.5 -162.5q0 -116 27 -166.5t94 -50.5q72 0 198 30l39 -239q-155 -49 -299 -49q-209 0 -305 121t-96 356z " />
<glyph unicode="&#xaa;" horiz-adv-x="851" d="M90 797q0 63 21.5 105.5t68 67.5t104 37.5t144.5 18.5v25q0 26 -27 26q-75 0 -251 -45l-46 228q204 49 369 49q132 0 189 -49.5t57 -153.5q0 -42 -4 -139t-4 -148q0 -20 15 -26.5t52 -6.5l-26 -190q-64 -6 -117 -6q-103 0 -152 55h-10q-69 -55 -174 -55q-101 0 -155 55 t-54 152zM362 815q0 -41 33 -41q41 0 41 43v55q-39 -6 -56.5 -19t-17.5 -38z" />
<glyph unicode="&#xab;" horiz-adv-x="1198" d="M8 420v135l418 432l221 -141l-237 -350l243 -351l-239 -147zM512 420v135l418 432l221 -141l-238 -350l244 -351l-239 -147z" />
<glyph unicode="&#xac;" horiz-adv-x="999" d="M66 428v332h843v-547h-366v215h-477z" />
<glyph unicode="&#xad;" horiz-adv-x="825" d="M66 367v331h694v-331h-694z" />
<glyph unicode="&#xae;" horiz-adv-x="2045" d="M98 481q0 419 230.5 636.5t683.5 217.5q239 0 418 -58.5t292.5 -170t169.5 -268t56 -357.5q0 -427 -228 -639.5t-708 -212.5q-470 0 -692 212t-222 640zM457 473q0 -292 131 -421.5t424 -129.5q245 0 379 82h-291l-86 324h-31v-324h-311v938h411q175 0 258.5 -74 t83.5 -229q0 -92 -24 -147t-82 -93l119 -360q139 125 139 438q0 301 -127.5 426t-437.5 125q-285 0 -420 -130t-135 -425zM977 510h49q34 0 49 20.5t15 75.5q0 48 -15.5 68t-48.5 20h-49v-184z" />
<glyph unicode="&#xaf;" horiz-adv-x="1024" d="M201 1067v248h645v-248h-645z" />
<glyph unicode="&#xb0;" horiz-adv-x="704" d="M63 1018q0 134 67.5 199t213.5 65q154 0 220.5 -64t66.5 -200q0 -135 -67 -197.5t-220 -62.5q-147 0 -214 63t-67 197zM303 1020q0 -62 41 -62t41 60q0 32 -9 44.5t-32 12.5q-22 0 -31.5 -12t-9.5 -43z" />
<glyph unicode="&#xb1;" horiz-adv-x="974" d="M66 0v311h843v-311h-843zM66 565v332h256v240h331v-240h256v-332h-256v-194h-331v194h-256z" />
<glyph unicode="&#xb2;" horiz-adv-x="811" d="M76 1227q166 65 330 65q155 0 234 -72t79 -202q0 -82 -26 -151.5t-66 -122.5t-115 -130v-6h209v-221h-610l-15 156q17 16 51 49t51.5 50.5t47 46.5t45.5 47.5t38 44t33.5 44.5t23.5 41.5t17 42.5t5 39q0 70 -68 70q-60 0 -217 -41z" />
<glyph unicode="&#xb3;" horiz-adv-x="829" d="M96 1219q152 73 322 73q150 0 232.5 -66.5t82.5 -185.5q0 -67 -24 -108.5t-82 -73.5v-6q118 -53 118 -205q0 -131 -86 -202.5t-251 -71.5q-78 0 -140 12.5t-151 46.5l61 221q157 -47 197 -47q57 0 57 62q0 34 -16 48.5t-51 14.5h-125v201h125q27 0 37 13t10 42 q0 30 -13 45t-45 15q-6 0 -13.5 -0.5t-16.5 -2.5t-17 -4t-20 -5.5t-20.5 -6t-24.5 -8t-25 -8.5t-28 -9.5t-29 -9.5z" />
<glyph unicode="&#xb4;" horiz-adv-x="1024" d="M354 1059l131 266h439l-285 -266h-285z" />
<glyph unicode="&#xb5;" horiz-adv-x="1144" d="M66 -281v1262h430v-627q0 -49 53 -49q55 0 55 49v627h428v-674q0 -27 19 -37t69 -10l-37 -272q-106 -8 -176 -8q-165 0 -248 83h-8q-27 -37 -73 -60t-97 -23v-261h-415z" />
<glyph unicode="&#xb6;" horiz-adv-x="1345" d="M33 821q0 223 139 345t385 122h639v-1569h-344v1260h-49v-1260h-346v664q-199 6 -311.5 119.5t-112.5 318.5z" />
<glyph unicode="&#xb7;" horiz-adv-x="806" d="M172 625q0 96 60 141t180 45q122 0 179.5 -44t57.5 -142q0 -102 -56.5 -144.5t-180.5 -42.5q-122 0 -181 43.5t-59 143.5z" />
<glyph unicode="&#xb8;" horiz-adv-x="1024" d="M328 -283l75 146q93 -64 144 -64q14 0 14 13q0 9 -26 22l-54 25q-24 13 -35.5 27.5t-11.5 37.5q0 43 45 76h183q-31 -31 -31 -43q0 -7 22.5 -17.5t49 -22.5t49 -41.5t22.5 -68.5q0 -74 -58 -112.5t-165 -38.5q-134 0 -223 61z" />
<glyph unicode="&#xb9;" horiz-adv-x="626" d="M90 1028v162l158 82h239v-891h-297v647h-100z" />
<glyph unicode="&#xba;" horiz-adv-x="868" d="M88 950q0 189 84.5 274t265.5 85q176 0 257 -83t81 -265q0 -197 -79.5 -284t-258.5 -87q-183 0 -266.5 85.5t-83.5 274.5zM389 932q0 -93 7.5 -119.5t41.5 -26.5q27 0 35 26.5t8 111.5v41q0 82 -8 107.5t-39 25.5q-30 0 -37.5 -25.5t-7.5 -107.5v-33z" />
<glyph unicode="&#xbb;" horiz-adv-x="1198" d="M41 840l240 147l405 -422v-135l-418 -432l-221 141l238 350zM545 840l239 147l406 -422v-135l-418 -432l-221 141l237 350z" />
<glyph unicode="&#xbc;" horiz-adv-x="1882" d="M90 1028v162l158 82h239v-891h-297v647h-100zM467 0l405 1272h304l-408 -1272h-301zM1022 344l311 539h355v-506h108l-12 -209h-96v-168h-297v168h-347zM1292 371h107v186h-6z" />
<glyph unicode="&#xbd;" horiz-adv-x="1835" d="M90 1028v162l158 82h239v-891h-297v647h-100zM467 0l405 1272h304l-408 -1272h-301zM1100 840q166 65 330 65q155 0 234 -72t79 -202q0 -82 -26 -151.5t-66 -122.5t-115 -130v-6h209v-221h-610l-15 156q17 16 51 49t51.5 50.5t47 46.5t45.5 47.5t38 44t33.5 44.5 t23.5 41.5t17 42.5t5 39q0 70 -68 70q-60 0 -217 -41z" />
<glyph unicode="&#xbe;" horiz-adv-x="2009" d="M96 1219q152 73 322 73q150 0 232.5 -66.5t82.5 -185.5q0 -67 -24 -108.5t-82 -73.5v-6q118 -53 118 -205q0 -131 -86 -202.5t-251 -71.5q-78 0 -140 12.5t-151 46.5l61 221q157 -47 197 -47q57 0 57 62q0 34 -16 48.5t-51 14.5h-125v201h125q27 0 37 13t10 42 q0 30 -13 45t-45 15q-6 0 -13.5 -0.5t-16.5 -2.5t-17 -4t-20 -5.5t-20.5 -6t-24.5 -8t-25 -8.5t-28 -9.5t-29 -9.5zM621 0l405 1272h303l-407 -1272h-301zM1149 344l311 539h355v-506h108l-12 -209h-96v-168h-297v168h-347zM1419 371h107v186h-6z" />
<glyph unicode="&#xbf;" horiz-adv-x="808" d="M25 72q0 69 14.5 125t37.5 95t63 75t78 60t95 54v140h342v-228q0 -66 -27 -106.5t-93 -69.5q-63 -28 -86 -47.5t-23 -54.5q0 -60 70 -60q45 0 264 43v-356q-191 -43 -344 -43q-391 0 -391 373zM285 844q0 79 43 118t153 39q113 0 158 -40t45 -121q0 -87 -44.5 -126.5 t-158.5 -39.5q-111 0 -153.5 40t-42.5 130z" />
<glyph unicode="&#xc0;" d="M0 0l264 1272h625l264 -1272h-430l-41 197h-227l-43 -197h-412zM244 1587h391l133 -254h-276zM485 461h166l-78 426h-8z" />
<glyph unicode="&#xc1;" d="M0 0l264 1272h625l264 -1272h-430l-41 197h-227l-43 -197h-412zM379 1354l125 254h416l-271 -254h-270zM485 461h166l-78 426h-8z" />
<glyph unicode="&#xc2;" d="M0 0l264 1272h625l264 -1272h-430l-41 197h-227l-43 -197h-412zM246 1341l151 256h346l152 -256h-254l-70 103l-69 -103h-256zM485 461h166l-78 426h-8z" />
<glyph unicode="&#xc3;" d="M0 0l264 1272h625l264 -1272h-430l-41 197h-227l-43 -197h-412zM225 1307v24q0 130 43.5 197t155.5 67q15 0 29.5 -1t32 -4.5t29 -5.5t34 -8.5t30.5 -8.5t35.5 -10.5t34.5 -10.5v60h258v-23q0 -48 -4 -83.5t-16.5 -71.5t-34.5 -58.5t-60.5 -36.5t-91.5 -14 q-21 0 -42.5 2.5t-36 4.5t-38 9t-32 9.5t-36 12t-32.5 11.5v-61h-258zM485 461h166l-78 426h-8z" />
<glyph unicode="&#xc4;" d="M0 0l264 1272h625l264 -1272h-430l-41 197h-227l-43 -197h-412zM240 1448q0 62 38 94.5t107 32.5q156 0 156 -127q0 -67 -38 -98t-118 -31q-145 0 -145 129zM485 461h166l-78 426h-8zM602 1448q0 62 38.5 94.5t107.5 32.5q155 0 155 -127q0 -67 -37.5 -98t-117.5 -31 q-146 0 -146 129z" />
<glyph unicode="&#xc5;" d="M0 0l264 1272h111q-6 21 -6 47q0 164 198 164q201 0 201 -154q0 -36 -8 -57h129l264 -1272h-430l-41 197h-227l-43 -197h-412zM496 461h149l-70 377h-8zM528 1323q0 -48 31 -51h14q33 2 33 51q0 53 -39 53t-39 -53z" />
<glyph unicode="&#xc6;" horiz-adv-x="1564" d="M-10 0l450 1272h1102l-29 -338h-372v-154h325v-295h-325v-174h401l-29 -311h-811v197h-219l-67 -197h-426zM557 461h145v426h-8z" />
<glyph unicode="&#xc7;" horiz-adv-x="962" d="M43 625q0 160 31 280.5t98 208.5t178.5 133t267.5 45q182 0 357 -69l-68 -365q-204 60 -268 60q-85 0 -119.5 -71t-34.5 -224q0 -158 35 -228.5t125 -70.5q76 0 264 45l66 -326q-169 -53 -328 -61q-12 -12 -12 -25q0 -7 22.5 -17.5t49 -22.5t49 -41.5t22.5 -68.5 q0 -74 -58 -112.5t-165 -38.5q-134 0 -223 61l76 146q93 -64 143 -64q14 0 14 13q0 9 -26 22l-54 25q-24 13 -35.5 27.5t-11.5 37.5q0 38 29 64q-221 33 -322.5 193t-101.5 444z" />
<glyph unicode="&#xc8;" horiz-adv-x="944" d="M82 0v1272h840l-29 -338h-373v-154h326v-295h-326v-174h402l-29 -311h-811zM174 1587h391l133 -254h-276z" />
<glyph unicode="&#xc9;" horiz-adv-x="944" d="M82 0v1272h840l-29 -338h-373v-154h326v-295h-326v-174h402l-29 -311h-811zM330 1333l125 254h415l-270 -254h-270z" />
<glyph unicode="&#xca;" horiz-adv-x="944" d="M82 0v1272h840l-29 -338h-373v-154h326v-295h-326v-174h402l-29 -311h-811zM182 1321l152 256h346l151 -256h-253l-70 102l-70 -102h-256z" />
<glyph unicode="&#xcb;" horiz-adv-x="944" d="M82 0v1272h840l-29 -338h-373v-154h326v-295h-326v-174h402l-29 -311h-811zM172 1448q0 62 38 94.5t107 32.5q156 0 156 -127q0 -67 -38 -98t-118 -31q-145 0 -145 129zM535 1448q0 62 38 94.5t107 32.5q156 0 156 -127q0 -67 -38 -98t-118 -31q-145 0 -145 129z" />
<glyph unicode="&#xcc;" horiz-adv-x="620" d="M-16 1608h391l133 -254h-277zM94 0v1272h432v-1272h-432z" />
<glyph unicode="&#xcd;" horiz-adv-x="620" d="M96 0v1272h432v-1272h-432zM127 1354l125 254h416l-271 -254h-270z" />
<glyph unicode="&#xce;" horiz-adv-x="620" d="M-4 1341l151 256h347l151 -256h-254l-69 103l-70 -103h-256zM98 0v1272h432v-1272h-432z" />
<glyph unicode="&#xcf;" horiz-adv-x="620" d="M-14 1468q0 62 38 94.5t107 32.5q156 0 156 -127q0 -67 -38 -98t-118 -31q-145 0 -145 129zM102 0v1272h433v-1272h-433zM348 1468q0 62 38.5 94.5t107.5 32.5q155 0 155 -127q0 -67 -37.5 -98t-117.5 -31q-146 0 -146 129z" />
<glyph unicode="&#xd0;" horiz-adv-x="1226" d="M-18 481v283h100v508h504q168 0 285.5 -42.5t184.5 -125t96.5 -189.5t29.5 -251q0 -117 -18 -213t-61 -181.5t-111 -143.5t-174 -92t-243 -34h-493v481h-100zM518 319h51q44 0 74.5 14t48.5 37.5t27.5 65.5t12.5 84.5t3 108.5q0 68 -3.5 112.5t-14 85t-29.5 63 t-50.5 35.5t-76.5 13h-43v-174h92v-283h-92v-162z" />
<glyph unicode="&#xd1;" horiz-adv-x="1243" d="M82 0v1272h432l242 -518h12v518h393v-1272h-418l-258 502h-14v-502h-389zM279 1307v24q0 131 43 197.5t155 66.5q15 0 29.5 -1t32 -4.5t29 -5.5t34 -8.5t30.5 -8.5t35.5 -10.5t34.5 -10.5v60h259v-23q0 -48 -4 -83.5t-16.5 -71.5t-34.5 -58.5t-60.5 -36.5t-91.5 -14 q-21 0 -42.5 2.5t-36 4.5t-38 9t-32 9.5t-36 12t-32.5 11.5v-61h-258z" />
<glyph unicode="&#xd2;" horiz-adv-x="1247" d="M41 641q0 345 136.5 498t449.5 153q312 0 445.5 -151.5t133.5 -485.5q0 -348 -138 -511.5t-450 -163.5q-306 0 -441.5 162t-135.5 499zM254 1608h391l133 -254h-276zM487 580q0 -90 5 -139.5t21.5 -82.5t43.5 -43t76 -10q88 0 110.5 48.5t22.5 219.5v95q0 169 -26 220.5 t-115 51.5t-113.5 -51.5t-24.5 -218.5v-90z" />
<glyph unicode="&#xd3;" horiz-adv-x="1247" d="M41 641q0 345 136.5 498t449.5 153q312 0 445.5 -151.5t133.5 -485.5q0 -348 -138 -511.5t-450 -163.5q-306 0 -441.5 162t-135.5 499zM461 1354l125 254h415l-270 -254h-270zM487 580q0 -90 5 -139.5t21.5 -82.5t43.5 -43t76 -10q88 0 110.5 48.5t22.5 219.5v95 q0 169 -26 220.5t-115 51.5t-113.5 -51.5t-24.5 -218.5v-90z" />
<glyph unicode="&#xd4;" horiz-adv-x="1247" d="M41 641q0 345 136.5 498t449.5 153q312 0 445.5 -151.5t133.5 -485.5q0 -348 -138 -511.5t-450 -163.5q-306 0 -441.5 162t-135.5 499zM299 1341l152 256h346l151 -256h-254l-69 103l-70 -103h-256zM487 580q0 -90 5 -139.5t21.5 -82.5t43.5 -43t76 -10q88 0 110.5 48.5 t22.5 219.5v95q0 169 -26 220.5t-115 51.5t-113.5 -51.5t-24.5 -218.5v-90z" />
<glyph unicode="&#xd5;" horiz-adv-x="1247" d="M41 641q0 345 136.5 498t449.5 153q312 0 445.5 -151.5t133.5 -485.5q0 -348 -138 -511.5t-450 -163.5q-306 0 -441.5 162t-135.5 499zM264 1327v25q0 130 43.5 197t155.5 67q15 0 29.5 -1t32 -4.5t29 -5.5t34 -8.5t30.5 -8.5t35.5 -10.5t34.5 -10.5v59h258v-22 q0 -40 -3 -70.5t-10.5 -62.5t-22 -54.5t-37 -41t-56.5 -27.5t-78 -9q-21 0 -42 2.5t-36.5 5t-37.5 9t-33 10t-35 12t-33 11.5v-62h-258zM487 580q0 -90 5 -139.5t21.5 -82.5t43.5 -43t76 -10q88 0 110.5 48.5t22.5 219.5v95q0 169 -26 220.5t-115 51.5t-113.5 -51.5 t-24.5 -218.5v-90z" />
<glyph unicode="&#xd6;" horiz-adv-x="1247" d="M41 641q0 345 136.5 498t449.5 153q312 0 445.5 -151.5t133.5 -485.5q0 -348 -138 -511.5t-450 -163.5q-306 0 -441.5 162t-135.5 499zM289 1448q0 62 38 94.5t107 32.5q156 0 156 -127q0 -67 -38 -98t-118 -31q-145 0 -145 129zM487 580q0 -90 5 -139.5t21.5 -82.5 t43.5 -43t76 -10q88 0 110.5 48.5t22.5 219.5v95q0 169 -26 220.5t-115 51.5t-113.5 -51.5t-24.5 -218.5v-90zM651 1448q0 62 38.5 94.5t107.5 32.5q155 0 155 -127q0 -67 -37.5 -98t-117.5 -31q-146 0 -146 129z" />
<glyph unicode="&#xd7;" horiz-adv-x="962" d="M66 414l180 180l-180 180l235 236l180 -181l181 181l235 -236l-180 -180l180 -180l-235 -236l-181 180l-180 -180z" />
<glyph unicode="&#xd8;" horiz-adv-x="1247" d="M41 641q0 345 136.5 498t449.5 153q30 0 88 -4l49 107h428l-117 -258q131 -148 131 -482q0 -348 -138 -511.5t-450 -163.5q-12 0 -32.5 1t-28.5 1l-55 -123h-434l120 268q-147 157 -147 514zM487 580q0 -90 5 -139.5t21.5 -82.5t43.5 -43t76 -10q88 0 110.5 48.5 t22.5 219.5v95q0 169 -26 220.5t-115 51.5t-113.5 -51.5t-24.5 -218.5v-90z" />
<glyph unicode="&#xd9;" horiz-adv-x="1230" d="M74 422v850h446v-821q0 -111 101 -111q53 0 75.5 28t22.5 85v819h438v-846q0 -224 -141.5 -335t-405.5 -111q-263 0 -399.5 110t-136.5 332zM254 1587h391l133 -254h-276z" />
<glyph unicode="&#xda;" horiz-adv-x="1230" d="M74 422v850h446v-821q0 -111 101 -111q53 0 75.5 28t22.5 85v819h438v-846q0 -224 -141.5 -335t-405.5 -111q-263 0 -399.5 110t-136.5 332zM483 1333l125 254h416l-270 -254h-271z" />
<glyph unicode="&#xdb;" horiz-adv-x="1230" d="M74 422v850h446v-821q0 -111 101 -111q53 0 75.5 28t22.5 85v819h438v-846q0 -224 -141.5 -335t-405.5 -111q-263 0 -399.5 110t-136.5 332zM291 1321l151 256h346l152 -256h-254l-70 102l-69 -102h-256z" />
<glyph unicode="&#xdc;" horiz-adv-x="1230" d="M74 422v850h446v-821q0 -111 101 -111q53 0 75.5 28t22.5 85v819h438v-846q0 -224 -141.5 -335t-405.5 -111q-263 0 -399.5 110t-136.5 332zM285 1448q0 62 38 94.5t107 32.5q156 0 156 -127q0 -67 -38 -98t-118 -31q-145 0 -145 129zM647 1448q0 62 38.5 94.5 t107.5 32.5q155 0 155 -127q0 -67 -37.5 -98t-117.5 -31q-146 0 -146 129z" />
<glyph unicode="&#xdd;" horiz-adv-x="1097" d="M0 1272h461l90 -467h12l86 467h449l-336 -869v-403h-436v406zM412 1333l125 254h415l-270 -254h-270z" />
<glyph unicode="&#xde;" horiz-adv-x="1056" d="M82 0v1272h430v-164h39q252 0 366.5 -102.5t114.5 -337.5q0 -234 -111 -334.5t-348 -100.5h-61v-233h-430zM504 504h26q48 0 65 32.5t17 110.5t-19 111t-73 33h-16v-287z" />
<glyph unicode="&#xdf;" horiz-adv-x="1161" d="M2 676v276h98v17q0 184 124.5 272t371.5 88q254 0 380 -98t126 -283q0 -96 -28 -152t-97 -102v-10q88 -39 130 -111t42 -192q0 -190 -98.5 -291.5t-302.5 -101.5q-79 0 -181 12v297q31 -2 58 -2q44 0 69 25t25 71q0 62 -38 87.5t-114 25.5v280q59 0 84 26.5t25 80.5 q0 48 -21 78t-65 30q-60 0 -60 -59v-940h-430v676h-98z" />
<glyph unicode="&#xe0;" horiz-adv-x="1026" d="M29 276q0 72 21.5 125.5t59.5 88t100.5 58t132.5 35.5t169 19v37q0 16 -10 26.5t-29 10.5q-104 0 -358 -64l-64 324q294 70 527 70q188 0 269 -70t81 -219q0 -59 -6.5 -198.5t-6.5 -211.5q0 -28 22 -37.5t77 -9.5l-39 -272q-122 -8 -166 -8q-150 0 -217 79h-14 q-97 -79 -250 -79q-145 0 -222 78.5t-77 217.5zM188 1325h412l139 -266h-290zM418 301q0 -57 47 -57q59 0 59 61v78q-56 -8 -81 -26.5t-25 -55.5z" />
<glyph unicode="&#xe1;" horiz-adv-x="1026" d="M29 276q0 72 21.5 125.5t59.5 88t100.5 58t132.5 35.5t169 19v37q0 16 -10 26.5t-29 10.5q-104 0 -358 -64l-64 324q294 70 527 70q188 0 269 -70t81 -219q0 -59 -6.5 -198.5t-6.5 -211.5q0 -28 22 -37.5t77 -9.5l-39 -272q-122 -8 -166 -8q-150 0 -217 79h-14 q-97 -79 -250 -79q-145 0 -222 78.5t-77 217.5zM362 1059l132 266h438l-285 -266h-285zM418 301q0 -57 47 -57q59 0 59 61v78q-56 -8 -81 -26.5t-25 -55.5z" />
<glyph unicode="&#xe2;" horiz-adv-x="1026" d="M29 276q0 72 21.5 125.5t59.5 88t100.5 58t132.5 35.5t169 19v37q0 16 -10 26.5t-29 10.5q-104 0 -358 -64l-64 324q294 70 527 70q188 0 269 -70t81 -219q0 -59 -6.5 -198.5t-6.5 -211.5q0 -28 22 -37.5t77 -9.5l-39 -272q-122 -8 -166 -8q-150 0 -217 79h-14 q-97 -79 -250 -79q-145 0 -222 78.5t-77 217.5zM162 1047l160 268h364l160 -268h-268l-72 106l-74 -106h-270zM418 301q0 -57 47 -57q59 0 59 61v78q-56 -8 -81 -26.5t-25 -55.5z" />
<glyph unicode="&#xe3;" horiz-adv-x="1026" d="M29 276q0 72 21.5 125.5t59.5 88t100.5 58t132.5 35.5t169 19v37q0 16 -10 26.5t-29 10.5q-104 0 -358 -64l-64 324q294 70 527 70q188 0 269 -70t81 -219q0 -59 -6.5 -198.5t-6.5 -211.5q0 -28 22 -37.5t77 -9.5l-39 -272q-122 -8 -166 -8q-150 0 -217 79h-14 q-97 -79 -250 -79q-145 0 -222 78.5t-77 217.5zM135 1030v27q0 137 46 207.5t163 70.5q14 0 29 -1.5t26.5 -3t30 -5.5t28 -6t31 -8.5t29 -8.5t33 -10t31.5 -10v64h272v-25q0 -51 -4 -88t-17.5 -75t-37 -62t-64 -39t-96.5 -15q-22 0 -44.5 2.5t-37.5 5t-40.5 10.5t-33.5 10.5 t-37.5 13t-33.5 12.5v-66h-273zM418 301q0 -57 47 -57q59 0 59 61v78q-56 -8 -81 -26.5t-25 -55.5z" />
<glyph unicode="&#xe4;" horiz-adv-x="1026" d="M29 276q0 72 21.5 125.5t59.5 88t100.5 58t132.5 35.5t169 19v37q0 16 -10 26.5t-29 10.5q-104 0 -358 -64l-64 324q294 70 527 70q188 0 269 -70t81 -219q0 -59 -6.5 -198.5t-6.5 -211.5q0 -28 22 -37.5t77 -9.5l-39 -272q-122 -8 -166 -8q-150 0 -217 79h-14 q-97 -79 -250 -79q-145 0 -222 78.5t-77 217.5zM150 1180q0 65 40.5 99t112.5 34q164 0 164 -133q0 -70 -39.5 -103t-124.5 -33q-153 0 -153 136zM418 301q0 -57 47 -57q59 0 59 61v78q-56 -8 -81 -26.5t-25 -55.5zM530 1180q0 65 41 99t113 34q164 0 164 -133 q0 -70 -39.5 -103t-124.5 -33q-154 0 -154 136z" />
<glyph unicode="&#xe5;" horiz-adv-x="1026" d="M29 276q0 72 21.5 125.5t59.5 88t100.5 58t132.5 35.5t169 19v37q0 16 -10 26.5t-29 10.5q-104 0 -358 -64l-64 324q294 70 527 70q188 0 269 -70t81 -219q0 -59 -6.5 -198.5t-6.5 -211.5q0 -28 22 -37.5t77 -9.5l-39 -272q-122 -8 -166 -8q-150 0 -217 79h-14 q-97 -79 -250 -79q-145 0 -222 78.5t-77 217.5zM293 1196q0 172 209 172q211 0 211 -162q0 -172 -211 -172q-101 0 -155 43t-54 119zM418 301q0 -57 47 -57q59 0 59 61v78q-56 -8 -81 -26.5t-25 -55.5zM461 1200q0 -53 41 -53q24 0 32.5 13.5t8.5 39.5q0 57 -41 57t-41 -57z " />
<glyph unicode="&#xe6;" horiz-adv-x="1497" d="M29 276q0 72 21.5 125.5t59.5 88t100.5 58t132.5 35.5t169 19v37q0 16 -10 26.5t-29 10.5q-104 0 -358 -64l-64 324q294 70 522 70q127 0 207 -52q88 52 226 52q126 0 216 -28t141.5 -81.5t75 -123.5t23.5 -163q0 -63 -16 -229h-514q8 -113 133 -113q100 0 313 45 l35 -276q-214 -57 -405 -57q-208 0 -326 100q-153 -100 -354 -100q-145 0 -222 78.5t-77 217.5zM418 301q0 -57 47 -57q59 0 59 61v78q-56 -8 -81 -26.5t-25 -55.5zM924 567h147v31q0 39 -16.5 58.5t-55.5 19.5q-42 0 -58.5 -27t-16.5 -82z" />
<glyph unicode="&#xe7;" horiz-adv-x="806" d="M25 473q0 239 119 386t345 147q166 0 314 -56l-43 -323q-156 57 -225 57q-47 0 -64.5 -48.5t-17.5 -148.5q0 -106 16.5 -152t65.5 -46q73 0 206 26l45 -284q-153 -46 -268 -51q-10 -13 -10 -23q0 -7 22.5 -17.5t49 -22.5t49 -41.5t22.5 -68.5q0 -74 -58 -112.5 t-165 -38.5q-134 0 -223 61l76 146q93 -64 143 -64q14 0 14 13q0 9 -26 22l-54 25q-24 13 -35.5 27.5t-11.5 37.5q0 41 37 70q-160 36 -241.5 161t-81.5 318z" />
<glyph unicode="&#xe8;" horiz-adv-x="1019" d="M25 485q0 252 127.5 386.5t379.5 134.5q126 0 215.5 -28t140.5 -81.5t74 -123.5t23 -163q0 -75 -16 -229h-514q8 -111 135 -111q13 0 28.5 1t27.5 2t33.5 4t33.5 4.5t41 6.5t42 7t51 8.5t54 9.5l35 -276q-214 -57 -406 -57q-245 0 -375 134.5t-130 370.5zM197 1325h411 l140 -266h-291zM446 567h148v33q0 39 -16 57.5t-56 18.5q-43 0 -59.5 -27t-16.5 -82z" />
<glyph unicode="&#xe9;" horiz-adv-x="1019" d="M25 485q0 252 127.5 386.5t379.5 134.5q126 0 215.5 -28t140.5 -81.5t74 -123.5t23 -163q0 -75 -16 -229h-514q8 -111 135 -111q13 0 28.5 1t27.5 2t33.5 4t33.5 4.5t41 6.5t42 7t51 8.5t54 9.5l35 -276q-214 -57 -406 -57q-245 0 -375 134.5t-130 370.5zM362 1059 l132 266h438l-285 -266h-285zM446 567h148v33q0 39 -16 57.5t-56 18.5q-43 0 -59.5 -27t-16.5 -82z" />
<glyph unicode="&#xea;" horiz-adv-x="1019" d="M25 485q0 252 127.5 386.5t379.5 134.5q126 0 215.5 -28t140.5 -81.5t74 -123.5t23 -163q0 -75 -16 -229h-514q8 -111 135 -111q13 0 28.5 1t27.5 2t33.5 4t33.5 4.5t41 6.5t42 7t51 8.5t54 9.5l35 -276q-214 -57 -406 -57q-245 0 -375 134.5t-130 370.5zM182 1047 l160 268h365l159 -268h-268l-72 106l-73 -106h-271zM446 567h148v33q0 39 -16 57.5t-56 18.5q-43 0 -59.5 -27t-16.5 -82z" />
<glyph unicode="&#xeb;" horiz-adv-x="1019" d="M25 485q0 252 127.5 386.5t379.5 134.5q126 0 215.5 -28t140.5 -81.5t74 -123.5t23 -163q0 -75 -16 -229h-514q8 -111 135 -111q13 0 28.5 1t27.5 2t33.5 4t33.5 4.5t41 6.5t42 7t51 8.5t54 9.5l35 -276q-214 -57 -406 -57q-245 0 -375 134.5t-130 370.5zM176 1180 q0 65 41 99t113 34q164 0 164 -133q0 -70 -39.5 -103t-124.5 -33q-154 0 -154 136zM446 567h148v33q0 39 -16 57.5t-56 18.5q-43 0 -59.5 -27t-16.5 -82zM557 1180q0 65 41 99t113 34q163 0 163 -133q0 -71 -39 -103.5t-124 -32.5q-154 0 -154 136z" />
<glyph unicode="&#xec;" horiz-adv-x="573" d="M-61 1325h411l139 -266h-290zM76 0v961h426v-961h-426z" />
<glyph unicode="&#xed;" horiz-adv-x="573" d="M78 0v961h426v-961h-426zM84 1059l131 266h438l-284 -266h-285z" />
<glyph unicode="&#xee;" horiz-adv-x="573" d="M-53 1047l159 268h365l160 -268h-269l-71 106l-74 -106h-270zM78 0v961h426v-961h-426z" />
<glyph unicode="&#xef;" horiz-adv-x="573" d="M-57 1180q0 65 40.5 99t112.5 34q164 0 164 -133q0 -70 -39.5 -103t-124.5 -33q-153 0 -153 136zM76 0v961h426v-961h-426zM324 1180q0 65 40.5 99t112.5 34q164 0 164 -133q0 -70 -39.5 -103t-124.5 -33q-153 0 -153 136z" />
<glyph unicode="&#xf0;" horiz-adv-x="1067" d="M31 426q0 192 105.5 292.5t303.5 100.5q78 0 125 -8l8 8q-26 61 -81 96l-238 -108v199l31 18v8q-45 8 -152 8v301q281 0 485 -69l228 102v-239l-37 -23q113 -100 170 -237t57 -332q0 -268 -128 -415.5t-390 -147.5q-241 0 -364 105.5t-123 340.5zM465 397q0 -81 13 -116 t52 -35q25 0 40.5 12.5t22.5 39.5t9 55t2 73q0 84 -12 119t-53 35q-45 0 -59.5 -46t-14.5 -137z" />
<glyph unicode="&#xf1;" horiz-adv-x="1103" d="M61 0v981h388l12 -63q129 88 280 88q287 0 287 -279v-727h-432v635q0 33 -27 33q-38 0 -82 -21v-647h-426zM176 1030v27q0 137 46 207.5t163 70.5q14 0 29 -1.5t26.5 -3t30 -5.5t28 -6t31 -8.5t29 -8.5t33 -10t31.5 -10v64h272v-25q0 -51 -4 -88t-17.5 -75t-37 -62 t-64 -39t-96.5 -15q-22 0 -44.5 2.5t-37.5 5t-40.5 10.5t-33.5 10.5t-37.5 13t-33.5 12.5v-66h-273z" />
<glyph unicode="&#xf2;" horiz-adv-x="1032" d="M25 494q0 269 120 390.5t377 121.5q253 0 369.5 -119t116.5 -379q0 -282 -114.5 -405t-371.5 -123q-261 0 -379 122.5t-118 391.5zM186 1325h412l139 -266h-291zM453 467q0 -132 11 -169.5t60 -37.5q38 0 49 38t11 159v57q0 119 -11 155t-55 36q-43 0 -54 -36.5 t-11 -152.5v-49z" />
<glyph unicode="&#xf3;" horiz-adv-x="1032" d="M25 494q0 269 120 390.5t377 121.5q253 0 369.5 -119t116.5 -379q0 -282 -114.5 -405t-371.5 -123q-261 0 -379 122.5t-118 391.5zM342 1059l131 266h438l-284 -266h-285zM453 467q0 -132 11 -169.5t60 -37.5q38 0 49 38t11 159v57q0 119 -11 155t-55 36q-43 0 -54 -36.5 t-11 -152.5v-49z" />
<glyph unicode="&#xf4;" horiz-adv-x="1032" d="M25 494q0 269 120 390.5t377 121.5q253 0 369.5 -119t116.5 -379q0 -282 -114.5 -405t-371.5 -123q-261 0 -379 122.5t-118 391.5zM176 1047l160 268h364l160 -268h-268l-72 106l-74 -106h-270zM453 467q0 -132 11 -169.5t60 -37.5q38 0 49 38t11 159v57q0 119 -11 155 t-55 36q-43 0 -54 -36.5t-11 -152.5v-49z" />
<glyph unicode="&#xf5;" horiz-adv-x="1032" d="M25 494q0 269 120 390.5t377 121.5q253 0 369.5 -119t116.5 -379q0 -282 -114.5 -405t-371.5 -123q-261 0 -379 122.5t-118 391.5zM147 1030v27q0 137 46 207.5t163 70.5q14 0 29 -1.5t26.5 -3t30 -5.5t28 -6t31 -8.5t29 -8.5t33 -10t31.5 -10v64h272v-25q0 -51 -4 -88 t-17.5 -75t-37 -62t-64 -39t-96.5 -15q-22 0 -44.5 2.5t-37.5 5t-40.5 10.5t-33.5 10.5t-37.5 13t-33.5 12.5v-66h-273zM453 467q0 -132 11 -169.5t60 -37.5q38 0 49 38t11 159v57q0 119 -11 155t-55 36q-43 0 -54 -36.5t-11 -152.5v-49z" />
<glyph unicode="&#xf6;" horiz-adv-x="1032" d="M25 494q0 269 120 390.5t377 121.5q253 0 369.5 -119t116.5 -379q0 -282 -114.5 -405t-371.5 -123q-261 0 -379 122.5t-118 391.5zM168 1180q0 65 41 99t113 34q163 0 163 -133q0 -71 -39 -103.5t-124 -32.5q-154 0 -154 136zM453 467q0 -132 11 -169.5t60 -37.5 q38 0 49 38t11 159v57q0 119 -11 155t-55 36q-43 0 -54 -36.5t-11 -152.5v-49zM549 1180q0 65 40.5 99t112.5 34q164 0 164 -133q0 -70 -39.5 -103t-124.5 -33q-153 0 -153 136z" />
<glyph unicode="&#xf7;" horiz-adv-x="974" d="M66 428v332h843v-332h-843zM295 184q0 87 44.5 126.5t158.5 39.5q111 0 153.5 -40t42.5 -130q0 -79 -43 -118t-153 -39q-113 0 -158 40t-45 121zM295 999q0 87 44.5 126.5t158.5 39.5q111 0 153.5 -40t42.5 -130q0 -79 -43 -118t-153 -39q-113 0 -158 40t-45 121z" />
<glyph unicode="&#xf8;" horiz-adv-x="1044" d="M31 494q0 269 120 390.5t377 121.5q40 0 60 -2l53 118h346l-100 -225q127 -121 127 -389q0 -282 -114.5 -405t-371.5 -123q-35 0 -51 2l-55 -123h-352l100 223q-139 119 -139 412zM459 467q0 -132 11 -169.5t60 -37.5q38 0 49 38t11 159v57q0 119 -11 155t-55 36 q-43 0 -54 -36.5t-11 -152.5v-49z" />
<glyph unicode="&#xf9;" horiz-adv-x="1103" d="M61 258v723h431v-643q0 -33 30 -33q26 0 78 21v655h428v-977h-410v51h-12q-58 -37 -116 -56t-138 -19q-291 0 -291 278zM184 1325h412l139 -266h-291z" />
<glyph unicode="&#xfa;" horiz-adv-x="1103" d="M61 258v723h431v-643q0 -33 30 -33q26 0 78 21v655h428v-977h-410v51h-12q-58 -37 -116 -56t-138 -19q-291 0 -291 278zM403 1059l132 266h438l-285 -266h-285z" />
<glyph unicode="&#xfb;" horiz-adv-x="1103" d="M61 258v723h431v-643q0 -33 30 -33q26 0 78 21v655h428v-977h-410v51h-12q-58 -37 -116 -56t-138 -19q-291 0 -291 278zM201 1047l159 268h365l160 -268h-269l-71 106l-74 -106h-270z" />
<glyph unicode="&#xfc;" horiz-adv-x="1103" d="M61 258v723h431v-643q0 -33 30 -33q26 0 78 21v655h428v-977h-410v51h-12q-58 -37 -116 -56t-138 -19q-291 0 -291 278zM193 1180q0 65 40.5 99t112.5 34q164 0 164 -133q0 -70 -39.5 -103t-124.5 -33q-153 0 -153 136zM573 1180q0 65 41 99t113 34q164 0 164 -133 q0 -70 -39.5 -103t-124.5 -33q-154 0 -154 136z" />
<glyph unicode="&#xfd;" horiz-adv-x="1062" d="M0 981h451l86 -530h8q9 47 43.5 237.5t52.5 292.5h422l-285 -997q-43 -151 -132 -208t-292 -57h-245l-48 293h164q27 0 40.5 7.5t13.5 27.5t-11 57zM391 1059l131 266h439l-285 -266h-285z" />
<glyph unicode="&#xfe;" horiz-adv-x="1062" d="M61 -281v1594h412v-350q81 43 189 43q114 0 187.5 -28.5t115 -92.5t57.5 -152t16 -223q0 -139 -17 -232t-60.5 -163t-122.5 -102.5t-199 -32.5q-76 0 -152 28v-289h-426zM483 279q41 -9 66 -9q15 0 26 5.5t17.5 19.5t10.5 28.5t6 43t2.5 52t0.5 66.5q0 109 -12 157 t-53 48q-28 0 -64 -16v-395z" />
<glyph unicode="&#xff;" horiz-adv-x="1062" d="M0 981h451l86 -530h8q9 47 43.5 237.5t52.5 292.5h422l-285 -997q-43 -151 -132 -208t-292 -57h-245l-48 293h164q27 0 40.5 7.5t13.5 27.5t-11 57zM178 1180q0 65 41 99t113 34q164 0 164 -133q0 -70 -39.5 -103t-124.5 -33q-154 0 -154 136zM559 1180q0 65 41 99 t113 34q164 0 164 -133q0 -70 -39.5 -103t-124.5 -33q-154 0 -154 136z" />
<glyph unicode="&#x152;" horiz-adv-x="1626" d="M41 641q0 345 136.5 498t449.5 153q106 0 204 -20h773l-29 -338h-373v-154h326v-295h-326v-174h402l-29 -311h-758q-98 -20 -199 -20q-306 0 -441.5 162t-135.5 499zM487 580q0 -90 5 -139.5t21.5 -82.5t43.5 -43t76 -10q72 0 98.5 31.5t32.5 124.5v307 q-6 101 -35.5 136.5t-103.5 35.5q-89 0 -113.5 -51.5t-24.5 -218.5v-90z" />
<glyph unicode="&#x153;" horiz-adv-x="1587" d="M31 494q0 269 120 390.5t377 121.5q175 0 285 -58q116 58 283 58q126 0 216 -28t141.5 -81.5t75 -123.5t23.5 -163q0 -63 -16 -229h-514q8 -113 133 -113q100 0 313 45l35 -276q-214 -57 -405 -57q-159 0 -275 61q-110 -61 -295 -61q-261 0 -379 122.5t-118 391.5z M459 467q0 -132 11 -169.5t60 -37.5q38 0 49 38t11 159v57q0 119 -11 155t-55 36q-43 0 -54 -36.5t-11 -152.5v-49zM1014 567h147v31q0 39 -16 58.5t-55 19.5q-42 0 -59 -27.5t-17 -81.5z" />
<glyph unicode="&#x178;" horiz-adv-x="1097" d="M0 1272h461l90 -467h12l86 467h449l-336 -869v-403h-436v406zM221 1468q0 62 38.5 94.5t107.5 32.5q155 0 155 -127q0 -67 -37.5 -98t-117.5 -31q-146 0 -146 129zM584 1468q0 62 38 94.5t107 32.5q156 0 156 -127q0 -67 -38 -98t-118 -31q-145 0 -145 129z" />
<glyph unicode="&#x2c6;" horiz-adv-x="1024" d="M170 1047l160 268h364l160 -268h-268l-72 106l-74 -106h-270z" />
<glyph unicode="&#x2dc;" horiz-adv-x="1024" d="M168 1030v27q0 137 46 207.5t163 70.5q15 0 30.5 -1t34.5 -5t30.5 -6t36 -9t32 -9.5t37.5 -11.5t36 -11v64h273v-25q0 -51 -4 -88t-17.5 -75t-37 -62t-64 -39t-96.5 -15q-19 0 -36.5 1.5t-36.5 5t-32 6.5t-33 9.5t-29 9.5t-32 11.5t-29 10.5v-66h-272z" />
<glyph unicode="&#x2000;" horiz-adv-x="813" />
<glyph unicode="&#x2001;" horiz-adv-x="1626" />
<glyph unicode="&#x2002;" horiz-adv-x="813" />
<glyph unicode="&#x2003;" horiz-adv-x="1626" />
<glyph unicode="&#x2004;" horiz-adv-x="542" />
<glyph unicode="&#x2005;" horiz-adv-x="406" />
<glyph unicode="&#x2006;" horiz-adv-x="271" />
<glyph unicode="&#x2007;" horiz-adv-x="271" />
<glyph unicode="&#x2008;" horiz-adv-x="203" />
<glyph unicode="&#x2009;" horiz-adv-x="325" />
<glyph unicode="&#x200a;" horiz-adv-x="90" />
<glyph unicode="&#x2010;" horiz-adv-x="825" d="M66 367v331h694v-331h-694z" />
<glyph unicode="&#x2011;" horiz-adv-x="825" d="M66 367v331h694v-331h-694z" />
<glyph unicode="&#x2012;" horiz-adv-x="825" d="M66 367v331h694v-331h-694z" />
<glyph unicode="&#x2013;" horiz-adv-x="833" d="M66 342v332h702v-332h-702z" />
<glyph unicode="&#x2014;" horiz-adv-x="1228" d="M66 342v332h1097v-332h-1097z" />
<glyph unicode="&#x2018;" horiz-adv-x="552" d="M49 993q0 50 14.5 95.5t37 79.5t57.5 67t67 56t76 50l178 -26l-141 -191q68 -14 97.5 -47t29.5 -106q0 -87 -51 -127.5t-160 -40.5q-112 0 -158.5 46.5t-46.5 143.5z" />
<glyph unicode="&#x2019;" horiz-adv-x="552" d="M74 829l141 191q-68 14 -97.5 47.5t-29.5 106.5q0 87 51 127t160 40q112 0 158.5 -46.5t46.5 -143.5q0 -50 -14.5 -95.5t-37 -79.5t-57.5 -67t-67 -56t-76 -50z" />
<glyph unicode="&#x201a;" horiz-adv-x="552" d="M49 -209l141 191q-68 14 -97.5 47t-29.5 106q0 87 51 127.5t160 40.5q112 0 158.5 -46.5t46.5 -143.5q0 -62 -20 -115.5t-59.5 -96t-78.5 -73t-94 -64.5z" />
<glyph unicode="&#x201c;" horiz-adv-x="999" d="M49 993q0 50 14.5 95.5t37 79.5t57.5 67t67 56t76 50l178 -26l-141 -191q68 -14 97.5 -47t29.5 -106q0 -87 -51 -127.5t-160 -40.5q-112 0 -158.5 46.5t-46.5 143.5zM496 993q0 50 14.5 95.5t37 79.5t57.5 67t67 56t76 50l178 -26l-142 -191q68 -14 97.5 -47t29.5 -106 q0 -87 -51 -127.5t-160 -40.5q-112 0 -158 46.5t-46 143.5z" />
<glyph unicode="&#x201d;" horiz-adv-x="999" d="M74 829l141 191q-68 14 -97.5 47.5t-29.5 106.5q0 87 51 127t160 40q112 0 158.5 -46.5t46.5 -143.5q0 -50 -14.5 -95.5t-37 -79.5t-57.5 -67t-67 -56t-76 -50zM520 829l142 191q-68 14 -97.5 47.5t-29.5 106.5q0 87 50.5 127t159.5 40q112 0 158.5 -46.5t46.5 -143.5 q0 -50 -14.5 -95.5t-37 -79.5t-57.5 -67t-67 -56t-76 -50z" />
<glyph unicode="&#x201e;" horiz-adv-x="999" d="M49 -209l141 191q-68 14 -97.5 47t-29.5 106q0 87 51 127.5t160 40.5q112 0 158.5 -46.5t46.5 -143.5q0 -62 -20 -115.5t-59.5 -96t-78.5 -73t-94 -64.5zM496 -209l141 191q-68 14 -97.5 47t-29.5 106q0 87 51 127.5t160 40.5q112 0 158.5 -46.5t46.5 -143.5 q0 -62 -20 -115.5t-59.5 -96t-78.5 -73t-94 -64.5z" />
<glyph unicode="&#x2022;" horiz-adv-x="845" d="M168 627q0 127 62.5 190.5t197.5 63.5q129 0 189.5 -62.5t60.5 -191.5q0 -132 -62 -196t-188 -64q-128 0 -194 61t-66 199z" />
<glyph unicode="&#x2026;" horiz-adv-x="1587" d="M98 141q0 87 44.5 126.5t158.5 39.5q112 0 154.5 -40t42.5 -130q0 -79 -43.5 -118t-153.5 -39q-113 0 -158 40t-45 121zM606 141q0 87 44.5 126.5t158.5 39.5q112 0 154.5 -40t42.5 -130q0 -79 -43.5 -118t-153.5 -39q-113 0 -158 40t-45 121zM1108 141q0 87 44.5 126.5 t158.5 39.5q111 0 153.5 -40t42.5 -130q0 -79 -43 -118t-153 -39q-113 0 -158 40t-45 121z" />
<glyph unicode="&#x202f;" horiz-adv-x="325" />
<glyph unicode="&#x2039;" horiz-adv-x="694" d="M8 420v135l418 432l221 -141l-237 -350l243 -351l-239 -147z" />
<glyph unicode="&#x203a;" horiz-adv-x="694" d="M41 840l240 147l405 -422v-135l-418 -432l-221 141l238 350z" />
<glyph unicode="&#x205f;" horiz-adv-x="406" />
<glyph unicode="&#x20ac;" horiz-adv-x="1087" d="M33 393v201h102v39h-102v203h112q41 216 181 336t385 120q172 0 340 -61l-54 -344q-19 3 -76 11t-77.5 11t-54.5 6t-58 3q-90 0 -117 -82h377l-26 -203h-392v-39h390l-25 -201h-338q30 -71 141 -71q34 0 226 20l53 -315q-177 -47 -340 -47q-214 0 -349 108.5t-179 304.5 h-119z" />
<glyph unicode="&#x2122;" horiz-adv-x="1343" d="M41 1077l12 195h510l-12 -195h-127v-512h-242v512h-141zM563 565l25 707h307l35 -305h8l31 305h305l29 -707h-224v318h-12l-29 -318h-217l-28 318h-13v-318h-217z" />
<glyph unicode="&#x25fc;" horiz-adv-x="983" d="M0 0v983h983v-983h-983z" />
<glyph unicode="&#xfb01;" horiz-adv-x="1206" d="M2 676v276h98v99q0 134 82.5 205t247.5 71q128 0 248 -6l-25 -320q-93 7 -108 7q-21 0 -21 -21v-35h609v-952h-426v676h-179v-676h-428v676h-98zM698 1167q0 174 220 174q110 0 164.5 -41t54.5 -133q0 -91 -54 -129.5t-165 -38.5q-110 0 -165 38.5t-55 129.5z" />
<glyph unicode="&#xfb02;" horiz-adv-x="1226" d="M2 676v276h98v99q0 134 82.5 205t247.5 71q75 0 248 -14l-25 -312q-82 7 -108 7q-21 0 -21 -21v-35h183v361h419v-965q0 -29 18 -42t58 -13l-31 -313h-167q-150 0 -223.5 67t-73.5 207v422h-179v-676h-428v676h-98z" />
<glyph unicode="&#xfb03;" horiz-adv-x="1812" d="M2 676v276h98v99q0 134 82.5 205t247.5 71q80 0 264 -8l-28 -318q-93 7 -121 7q-21 0 -21 -21v-35h185v99q0 134 82 205t247 71q128 0 248 -6l-24 -320q-93 7 -109 7q-20 0 -20 -21v-35h608v-952h-426v676h-178v-676h-428v676h-181v-676h-428v676h-98zM1305 1167 q0 174 219 174q110 0 164.5 -41t54.5 -133q0 -91 -54 -129.5t-165 -38.5q-110 0 -164.5 38t-54.5 130z" />
<glyph unicode="&#xfb04;" horiz-adv-x="1832" d="M2 676v276h98v99q0 134 82.5 205t247.5 71q80 0 264 -8l-28 -318q-93 7 -121 7q-21 0 -21 -21v-35h183v99q0 134 82 205t247 71q75 0 248 -14l-24 -312q-82 7 -109 7q-21 0 -21 -21v-35h183v361h420v-965q0 -29 17.5 -42t57.5 -13l-30 -313h-168q-150 0 -223.5 67 t-73.5 207v422h-178v-676h-428v676h-179v-676h-428v676h-98z" />
</font>
</defs>
</svg>
